<svg width="18" height="13" viewBox="0 0 18 13" fill="none" xmlns="http://www.w3.org/2000/svg">
<path d="M17.2594 0.000313821C17.0726 0.00590154 16.8952 0.0842762 16.7649 0.218834L5.76477 11.2576L1.23828 6.71522C1.172 6.64595 1.09261 6.59064 1.00477 6.55254C0.916919 6.51444 0.82238 6.49431 0.726685 6.49333C0.630989 6.49235 0.536062 6.51055 0.447461 6.54685C0.35886 6.58315 0.278368 6.63682 0.210697 6.70473C0.143027 6.77264 0.0895394 6.85341 0.0533668 6.94233C0.0171941 7.03124 -0.000936381 7.1265 3.72317e-05 7.22253C0.00101084 7.31856 0.021069 7.41343 0.0590368 7.50159C0.0970047 7.58974 0.152119 7.66941 0.221152 7.73592L5.25621 12.7887C5.39111 12.924 5.57404 13 5.76477 13C5.95551 13 6.13844 12.924 6.27334 12.7887L17.782 1.23953C17.886 1.13814 17.957 1.00761 17.9857 0.865036C18.0145 0.722462 17.9996 0.574501 17.9431 0.440541C17.8866 0.306581 17.7911 0.192873 17.6691 0.114318C17.5471 0.0357631 17.4043 -0.00397405 17.2594 0.000313821Z" fill="#564293"/>
</svg>
