<svg width="50" height="46" viewBox="0 0 50 46" fill="none" xmlns="http://www.w3.org/2000/svg">
<g clip-path="url(#clip0_5_2)">
<path d="M27.7239 45.0276C33.2961 45.0276 38.6406 42.7602 42.5843 38.7232C46.5281 34.6862 48.7487 29.2094 48.7587 23.4951C48.7792 11.6091 39.1343 1.88456 27.5498 1.88456H23.6547C22.5425 1.88456 21.4758 2.33765 20.6894 3.14415C19.9029 3.95065 19.4611 5.0445 19.4611 6.18506V40.7271C19.4611 41.8676 19.9029 42.9615 20.6894 43.768C21.4758 44.5745 22.5425 45.0276 23.6547 45.0276H27.7239Z" fill="#564293"/>
<path d="M27.7239 45.8811H23.6547C22.3221 45.8799 21.0444 45.3365 20.1022 44.3702C19.1599 43.4039 18.63 42.0936 18.6289 40.7271V6.18506C18.63 4.8185 19.1599 3.50825 20.1022 2.54195C21.0444 1.57564 22.3221 1.03225 23.6547 1.03106H27.5439C30.453 1.02879 33.3336 1.61899 36.0185 2.76741C38.7034 3.91583 41.1391 5.59962 43.1844 7.72106C47.3268 11.9766 49.6027 17.5791 49.591 23.4966C49.5809 29.4371 47.2726 35.1309 43.1728 39.3277C39.0729 43.5245 33.5167 45.8815 27.7239 45.8811ZM23.6547 2.73806C22.7624 2.73806 21.9067 3.10154 21.2758 3.74854C20.6449 4.39554 20.2905 5.27306 20.2905 6.18806V40.7271C20.2905 41.6421 20.6449 42.5196 21.2758 43.1666C21.9067 43.8136 22.7624 44.1771 23.6547 44.1771H27.7239C38.8403 44.1771 47.9089 34.8996 47.9265 23.4966C47.9367 18.0351 45.8334 12.8631 42.0055 8.93006C40.1145 6.96808 37.8625 5.41071 35.3799 4.3483C32.8974 3.28588 30.2339 2.73957 27.5439 2.74106L23.6547 2.73806Z" fill="#030404"/>
<path d="M22.7215 45.0276C34.3387 45.0276 43.7564 35.3697 43.7564 23.4561C43.7564 11.5424 34.3387 1.88456 22.7215 1.88456C11.1042 1.88456 1.68657 11.5424 1.68657 23.4561C1.68657 35.3697 11.1042 45.0276 22.7215 45.0276Z" fill="white"/>
<path d="M22.7215 45.8811C10.6689 45.8811 0.854298 35.8206 0.854298 23.4561C0.854298 11.0916 10.6689 1.0311 22.7215 1.0311C34.774 1.0311 44.5886 11.0916 44.5886 23.4561C44.5886 35.8206 34.7784 45.8811 22.7215 45.8811ZM22.7215 2.7381C11.5816 2.7381 2.51883 12.0381 2.51883 23.4561C2.51883 34.8741 11.5875 44.1741 22.7215 44.1741C33.8554 44.1741 42.9226 34.8741 42.9226 23.4561C42.9226 12.0381 33.8598 2.7381 22.7215 2.7381Z" fill="#030404"/>
<path d="M22.7214 22.945L20.991 21.172V9.95654L22.7214 8.17754L24.4503 9.95654V21.178L22.7214 22.945ZM24.4503 36.9565V25.741L22.7214 23.968L20.991 25.741V36.9565L22.7214 38.7295L24.4503 36.9565Z" fill="#262626"/>
</g>
<defs>
<clipPath id="clip0_5_2">
<rect width="49" height="45" fill="white" transform="translate(0.722656 0.956055)"/>
</clipPath>
</defs>
</svg>
