<svg width="50" height="45" viewBox="0 0 50 45" fill="none" xmlns="http://www.w3.org/2000/svg">
<g clip-path="url(#clip0_5_11)">
<path d="M27.5522 44.0715C33.2382 44.0715 38.6918 41.8042 42.716 37.7672C46.7402 33.7301 49.0061 28.2534 49.0164 22.539C49.0373 10.653 39.1955 0.928505 27.3746 0.928505H23.4C22.2651 0.928505 21.1767 1.38159 20.3742 2.18809C19.5717 2.99459 19.1209 4.08844 19.1209 5.22901V39.771C19.1209 40.9116 19.5717 42.0054 20.3742 42.8119C21.1767 43.6184 22.2651 44.0715 23.4 44.0715H27.5522Z" fill="#6B59A1"/>
<path d="M27.5522 44.925H23.4C22.0402 44.9238 20.7365 44.3804 19.775 43.4141C18.8135 42.4478 18.2728 41.1376 18.2716 39.771V5.229C18.2728 3.86244 18.8135 2.5522 19.775 1.58589C20.7365 0.619587 22.0402 0.0761951 23.4 0.0750035H27.3687C30.3371 0.0727322 33.2764 0.662931 36.0161 1.81136C38.7558 2.95978 41.2413 4.64356 43.3284 6.765C47.5552 11.0205 49.8776 16.623 49.8657 22.5405C49.8554 28.4811 47.4999 34.1748 43.3164 38.3716C39.1329 42.5685 33.4633 44.9254 27.5522 44.925ZM23.4 1.782C22.4896 1.782 21.6164 2.14548 20.9726 2.79249C20.3288 3.43949 19.9672 4.31701 19.9672 5.232V39.771C19.9672 40.686 20.3288 41.5635 20.9726 42.2105C21.6164 42.8575 22.4896 43.221 23.4 43.221H27.5522C38.8955 43.221 48.1493 33.9435 48.1672 22.5405C48.1776 17.079 46.0313 11.907 42.1254 7.974C40.1958 6.01203 37.8977 4.45466 35.3646 3.39224C32.8314 2.32983 30.1135 1.78352 27.3687 1.785L23.4 1.782Z" fill="#030404"/>
<path d="M22.4478 44.0715C34.3021 44.0715 43.9119 34.4136 43.9119 22.5C43.9119 10.5864 34.3021 0.928505 22.4478 0.928505C10.5934 0.928505 0.983582 10.5864 0.983582 22.5C0.983582 34.4136 10.5934 44.0715 22.4478 44.0715Z" fill="white"/>
<path d="M22.4478 44.925C10.1493 44.925 0.134327 34.8645 0.134327 22.5C0.134327 10.1355 10.1493 0.0750427 22.4478 0.0750427C34.7463 0.0750427 44.7612 10.1355 44.7612 22.5C44.7612 34.8645 34.7507 44.925 22.4478 44.925ZM22.4478 1.78204C11.0806 1.78204 1.83283 11.082 1.83283 22.5C1.83283 33.918 11.0866 43.218 22.4478 43.218C33.809 43.218 43.0612 33.918 43.0612 22.5C43.0612 11.082 33.8134 1.78204 22.4478 1.78204Z" fill="#030404"/>
<path d="M28.8389 22.5005L27.3046 24.044H17.5896L16.0553 22.5005L17.5896 20.9585H27.3046L28.8389 22.5005ZM27.3046 7.22148H17.5896L16.0553 8.76348L17.5896 10.307H27.3046L28.8389 8.76348L27.3046 7.22148ZM30.6598 20.513V10.751L29.124 9.20898L27.5896 10.751V20.513L29.124 22.0505L30.6598 20.513ZM27.3046 34.694H17.5896C16.9926 35.294 16.0553 36.236 16.0553 36.2375L17.5896 37.7795H27.3046L28.8389 36.2375C28.8389 36.2375 27.9105 35.297 27.3046 34.694ZM17.3046 34.244V24.488L15.7702 22.9505L14.2344 24.488V34.25L15.7702 35.792L17.3046 34.244Z" fill="#262626"/>
</g>
<defs>
<clipPath id="clip0_5_11">
<rect width="50" height="45" fill="white"/>
</clipPath>
</defs>
</svg>
