<svg width="49" height="45" viewBox="0 0 49 45" fill="none" xmlns="http://www.w3.org/2000/svg">
<g clip-path="url(#clip0_5_20)">
<path d="M27.0012 44.0715C32.5734 44.0715 37.918 41.8042 41.8617 37.7672C45.8054 33.7301 48.026 28.2534 48.0361 22.539C48.0566 10.653 38.4116 0.928501 26.8272 0.928501H22.932C21.8198 0.928501 20.7532 1.38159 19.9667 2.18809C19.1803 2.99459 18.7385 4.08844 18.7385 5.229V39.771C18.7385 40.9116 19.1803 42.0054 19.9667 42.8119C20.7532 43.6184 21.8198 44.0715 22.932 44.0715H27.0012Z" fill="#564293"/>
<path d="M27.0012 44.925H22.932C21.5994 44.9238 20.3218 44.3804 19.3795 43.4141C18.4373 42.4478 17.9074 41.1376 17.9062 39.771V5.229C17.9074 3.86244 18.4373 2.55219 19.3795 1.58589C20.3218 0.619583 21.5994 0.0761913 22.932 0.0749997H26.8213C29.7304 0.0727284 32.6109 0.662927 35.2958 1.81135C37.9807 2.95978 40.4165 4.64356 42.4618 6.765C46.6041 11.0205 48.8801 16.623 48.8684 22.5405C48.8583 28.4811 46.5499 34.1748 42.4501 38.3716C38.3503 42.5685 32.794 44.9254 27.0012 44.925ZM22.932 1.782C22.0398 1.782 21.1841 2.14548 20.5532 2.79248C19.9223 3.43948 19.5678 4.317 19.5678 5.232V39.771C19.5678 40.686 19.9223 41.5635 20.5532 42.2105C21.1841 42.8575 22.0398 43.221 22.932 43.221H27.0012C38.1176 43.221 47.1863 33.9435 47.2038 22.5405C47.2141 17.079 45.1107 11.907 41.2829 7.974C39.3919 6.01202 37.1398 4.45465 34.6573 3.39224C32.1748 2.32982 29.5113 1.78351 26.8213 1.785L22.932 1.782Z" fill="#030404"/>
<path d="M21.9988 44.0715C33.6161 44.0715 43.0337 34.4136 43.0337 22.5C43.0337 10.5864 33.6161 0.928497 21.9988 0.928497C10.3816 0.928497 0.963913 10.5864 0.963913 22.5C0.963913 34.4136 10.3816 44.0715 21.9988 44.0715Z" fill="white"/>
<path d="M21.9988 44.925C9.94627 44.925 0.131645 34.8645 0.131645 22.5C0.131645 10.1355 9.94627 0.0750351 21.9988 0.0750351C34.0513 0.0750351 43.866 10.1355 43.866 22.5C43.866 34.8645 34.0557 44.925 21.9988 44.925ZM21.9988 1.78204C10.859 1.78204 1.79618 11.082 1.79618 22.5C1.79618 33.918 10.8648 43.218 21.9988 43.218C33.1328 43.218 42.2 33.918 42.2 22.5C42.2 11.082 33.1372 1.78204 21.9988 1.78204Z" fill="#030404"/>
<path d="M27.37 22.5005L25.8664 24.044H16.3472L14.8421 22.5005L16.3472 20.9585H25.8664L27.37 22.5005ZM25.8664 7.22148H16.3472L14.8421 8.76348L16.3472 10.307H25.8664L27.37 8.76348L25.8664 7.22148ZM29.1545 20.513V10.751L27.645 9.20898L26.1457 10.751V20.513C26.7308 21.113 27.6494 22.055 27.6508 22.0565L29.1545 20.513ZM25.8664 34.694H16.3472L14.8421 36.2375L16.3472 37.7795H25.8664L27.37 36.2375C27.37 36.2375 26.4529 35.297 25.8664 34.694ZM29.1545 34.244V24.488L27.645 22.9505C27.645 22.9505 26.7264 23.891 26.1399 24.494V34.256L27.645 35.792L29.1545 34.244Z" fill="#262626"/>
</g>
<defs>
<clipPath id="clip0_5_20">
<rect width="49" height="45" fill="white"/>
</clipPath>
</defs>
</svg>
