<svg width="50" height="45" viewBox="0 0 50 45" fill="none" xmlns="http://www.w3.org/2000/svg">
<g clip-path="url(#clip0_5_29)">
<path d="M27.5522 44.0715C33.2382 44.0715 38.6918 41.8042 42.716 37.7671C46.7402 33.7301 49.0061 28.2534 49.0164 22.539C49.0373 10.653 39.1955 0.928499 27.3746 0.928499H23.4C22.2651 0.928499 21.1767 1.38159 20.3742 2.18809C19.5717 2.99459 19.1209 4.08844 19.1209 5.229V39.771C19.1209 40.9116 19.5717 42.0054 20.3742 42.8119C21.1767 43.6184 22.2651 44.0715 23.4 44.0715H27.5522Z" fill="#564293"/>
<path d="M27.5522 44.925H23.3985C22.039 44.9234 20.7357 44.3798 19.7745 43.4136C18.8133 42.4473 18.2728 41.1373 18.2716 39.771V5.229C18.2728 3.8627 18.8133 2.55268 19.7745 1.58642C20.7357 0.620155 22.039 0.0765883 23.3985 0.0749997H27.3687C30.3371 0.0727284 33.2764 0.662927 36.0161 1.81135C38.7558 2.95978 41.2413 4.64356 43.3284 6.765C47.5552 11.0205 49.8761 16.623 49.8657 22.5405C49.8554 28.4811 47.4999 34.1748 43.3164 38.3716C39.1329 42.5685 33.4633 44.9254 27.5522 44.925ZM23.3985 1.782C22.4881 1.782 21.6149 2.14548 20.9711 2.79248C20.3273 3.43948 19.9657 4.317 19.9657 5.232V39.771C19.9657 40.686 20.3273 41.5635 20.9711 42.2105C21.6149 42.8575 22.4881 43.221 23.3985 43.221H27.5522C38.8955 43.221 48.1493 33.9435 48.1672 22.5405C48.1776 17.079 46.0313 11.907 42.1254 7.974C40.1957 6.01216 37.8976 4.45488 35.3645 3.39247C32.8313 2.33006 30.1135 1.78368 27.3687 1.785L23.3985 1.782Z" fill="#030404"/>
<path d="M22.4478 44.0715C34.3021 44.0715 43.9119 34.4136 43.9119 22.5C43.9119 10.5864 34.3021 0.928499 22.4478 0.928499C10.5934 0.928499 0.983582 10.5864 0.983582 22.5C0.983582 34.4136 10.5934 44.0715 22.4478 44.0715Z" fill="white"/>
<path d="M22.4478 44.925C10.1492 44.925 0.134323 34.8645 0.134323 22.5C0.134323 10.1355 10.1492 0.075037 22.4478 0.075037C34.7463 0.075037 44.7612 10.1355 44.7612 22.5C44.7612 34.8645 34.7507 44.925 22.4478 44.925ZM22.4478 1.78204C11.0806 1.78204 1.83283 11.082 1.83283 22.5C1.83283 33.918 11.0866 43.218 22.4478 43.218C33.8089 43.218 43.0612 33.918 43.0612 22.5C43.0612 11.082 33.8134 1.78204 22.4478 1.78204Z" fill="#030404"/>
<path d="M28.8715 22.5005L27.1073 24.2735H15.9401L14.179 22.5005L15.9431 20.7275H27.1103L28.8715 22.5005ZM15.6118 20.216V9.00048C14.9252 8.30298 13.8491 7.22148 13.8476 7.22148L12.0894 9.00048V20.222L13.8536 21.995C13.8536 21.995 14.9252 20.909 15.6118 20.216ZM30.964 20.216V9.00048L29.1998 7.22148L27.4342 9.00048V20.222L29.1998 21.995L30.964 20.216ZM30.964 36.0065V24.785L29.1998 23.012L27.4342 24.785V36.0005L29.1998 37.7735L30.964 36.0065Z" fill="#262626"/>
</g>
<defs>
<clipPath id="clip0_5_29">
<rect width="50" height="45" fill="white"/>
</clipPath>
</defs>
</svg>
