<svg width="205" height="64" viewBox="0 0 205 64" fill="none" xmlns="http://www.w3.org/2000/svg">
<g clip-path="url(#clip0_133_7014)">
<g clip-path="url(#clip1_133_7014)">
<g clip-path="url(#clip2_133_7014)">
<path d="M27.6 16H23.5C20.6 16 16.8 18.7 16.2 23.2L15.9 25.2H4.9V28.7H15.3L14.5 33.5H3.5V37H13.9L13.3 40.6C13.3 40.9 13.3 41.1 13.3 41.3C13.1 45.8 17 47.8 19.6 47.8H23.2C26.1 47.8 30 46.1 31 40.6L33.4 23.2C33.4 23 33.4 22.7 33.4 22.5C33.9 19.4 31.5 16 27.6 16ZM26.7 23.6C26.7 23.7 24.7 39.5 24.7 39.5C24.6 40 24.1 42.5 22.9 42.5H21.7C20.6 42.4 20.6 41.3 20.8 39.9C20.8 39.8 22.8 23.8 22.8 23.8C23 22.9 23 21.3 24.5 21.3H25.4C27.3 21.3 26.8 22.8 26.7 23.6Z" fill="black"/>
<path d="M50.5004 31.6L55.1004 47.8H47.3004L43.6004 33.3L41.5004 47.8H34.4004L39.2004 16H46.3004L44.2004 30L52.2004 16H59.9004L50.5004 31.6Z" fill="black"/>
<path d="M77.1004 25.2C77.0004 24.8 76.8004 24.5 76.6004 24.1C75.8004 22.8 74.6004 21.9 73.2004 21.6C72.8004 21.5 72.4004 21.5 72.0004 21.5H68.0004C63.9004 21.5 60.6004 24.6 59.9004 28.7L59.8004 29.5L58.4004 40.4C58.4004 40.4 57.9004 43.7 58.9004 45.5C59.7004 46.8 60.8004 47.9 62.2004 48.4C62.8004 48.7 63.5004 48.8 64.3004 48.8H67.9004C70.1004 48.6 71.9004 48.2 72.9004 47.3C74.2004 46.3 75.0004 45.2 75.5004 42.9L75.6004 42.2L75.9004 40L76.3004 37.3H69.6004L69.4004 38.8V39L68.5004 43.5C68.4004 44.2 67.9004 44.4 67.3004 44.4H66.8004C66.3004 44.4 65.6004 44.1 65.6004 43.6C65.6004 43.5 65.6004 43.5 65.6004 43.4L66.0004 38.5L66.3004 35.9L66.8004 32L67.3004 27.8L67.4004 27.4C67.5004 26.7 67.7004 25.3 68.6004 25.3H69.4004C70.0004 25.3 70.3004 25.9 70.2004 27.2C70.2004 27.3 69.8004 31 69.8004 31H76.8004C76.7004 31 77.3004 26.2 77.1004 25.2Z" fill="black"/>
<path d="M99 25.9C99 26.2 99 26.5 98.9 26.9L96 47.9H89.2C89.2 47.9 91.7 29.7 91.9 28.6C92.1 27.2 91 26.7 90.5 26.7H89.5C88.9 26.7 87.8 26.6 87.5 28.6L84.8 47.8H78L82.9 16H89.7L88.2 23.6C89.2 22.3 92.2 21.5 93.5 21.5H94.6C97.4 21.5 99 23.3 99 25.9Z" fill="black"/>
<path d="M120.8 27.7C120.8 27.9 120.8 28.2 120.7 28.5L117.7 48.6L109.6 48.7L109.9 46.4C109.1 48.4 106.8 48.9 105.1 48.9H104.5C101.6 48.9 99.9004 47.1 99.9004 44.4C99.9004 44.1 99.9004 43.8 100 43.4L100.5 39.9C101.1 36.2 104.3 35 107.4 33.7C110.5 32.4 112.3 31.6 112.3 31.6C112.3 31.6 112.8 29.1 112.9 27.7C113 26.7 113 25.3 111.6 25.3C109.6 25.3 109.5 27.2 109.4 27.9L109.1 30.8H102.2L102.7 26.9C103.1 23.9 107.4 21.4 110.5 21.4H113.8C118 21.5 121 24.4 120.8 27.7ZM111.5 35.9C111.5 35.9 109 36.8 108.2 39.1C107.6 41 107.4 43.1 107.5 43.8C107.6 44.4 107.9 44.7 108.8 44.6C109.7 44.5 110.3 43.3 110.3 43.3C110.3 43.3 111.4 38 111.5 35.9Z" fill="black"/>
<path d="M140.8 25.8C140.8 26.1 140.8 26.4 140.7 26.8L138 47.8H131.3C131.3 47.8 133.5 30.3 133.6 29.5C133.7 29 134.1 26.6 132.6 26.6H131.8C131 26.7 130.4 27.3 130.1 29.5L127.7 47.8H121.5L124.8 21.7H130.2V24.4C131 22.6 132.6 21.4 134.1 21.4H136.6C139.3 21.5 140.8 23.2 140.8 25.8Z" fill="black"/>
<path d="M165.3 21.7L161.2 50.2C160.8 53.5 157.8 56 154.4 56H143.8L144.5 50.8H152.9C153.6 50.8 154.2 50.3 154.3 49.7L154.8 46C153.9 47.5 152.4 48.4 151 48.4H149.1C146.2 48.4 143.3 46.6 143.5 43C143.5 42.7 143.5 42.4 143.6 42L145.9 27.8C146.3 24.6 149.7 21.4 153 21.4H155.2C156.8 21.4 158 22.7 158.2 24.7L159.3 21.7H165.3ZM153.6 43.2C154.6 43.2 155.1 42.6 155.3 41.6C155.3 41.6 157.1 29.1 157.1 29C157.4 27 157.2 26.7 156 26.7H154.6C153.4 26.7 153.3 27.6 153.1 29C153.1 29 151.3 41.3 151.3 41.4C151.1 42.6 151.6 43.3 152.5 43.3L153.6 43.2Z" fill="black"/>
<path d="M184.4 28.4L183.2 36.2H173.2L172.4 41.8C172.3 42.5 172.8 43.5 173.7 43.4H174.4C175.3 43.3 175.9 42.5 175.9 41.8L176.4 38.9H182.8L182.3 41.8C181.9 44.8 177.8 48.8 175 48.8H171.3C168.4 48.8 165.1 44.8 165.4 41.8L167.5 28.4C168.1 23.8 172 21.4 174.8 21.4H178.5C181.4 21.5 184.8 23.8 184.4 28.4ZM173.7 31.7H177.2L177.7 28.8C177.9 27.1 177.4 26.7 176.5 26.7H175.8C174.7 26.8 174.4 27.9 174.2 28.8L173.7 31.7Z" fill="black"/>
<path d="M200.801 21.5L199.401 28.3L197.101 28.5C195.801 28.6 195.301 29.3 195.001 31.3L192.901 47.9H186.301L189.801 21.5H195.401V24.9C196.201 22.9 197.701 21.5 200.001 21.5H200.801Z" fill="black"/>
</g>
</g>
</g>
<defs>
<clipPath id="clip0_133_7014">
<rect width="205" height="64" fill="white"/>
</clipPath>
<clipPath id="clip1_133_7014">
<rect x="-28.5" y="-24" width="262" height="112" rx="20" fill="white"/>
</clipPath>
<clipPath id="clip2_133_7014">
<rect width="198" height="60" fill="white" transform="translate(3.5 4)"/>
</clipPath>
</defs>
</svg>
