<svg width="264" height="58" viewBox="0 0 264 58" fill="none" xmlns="http://www.w3.org/2000/svg">
<g clip-path="url(#clip0_3_18)">
<mask id="mask0_3_18" style="mask-type:luminance" maskUnits="userSpaceOnUse" x="-30" y="-29" width="324" height="112">
<path d="M274 -29H-10C-21.0457 -29 -30 -20.0457 -30 -9V63C-30 74.0457 -21.0457 83 -10 83H274C285.046 83 294 74.0457 294 63V-9C294 -20.0457 285.046 -29 274 -29Z" fill="white"/>
</mask>
<g mask="url(#mask0_3_18)">
<path d="M66.3 15.8H68.9V25.4L79.2 15.8H82.7L70.3 27.3L83.7 41.5H80.3L69 29.5V41.5H66.4L66.3 15.8Z" fill="#5B92C6"/>
<path d="M87.4 23.1L91.5 33.5C91.9 34.7 92.4 36 92.7 37.1H92.8C93.1 36 93.5 34.7 94 33.4L97.7 23.1H101.3L96.2 35.7C93.8 41.7 92.1 44.8 89.8 46.7C88.2 48.1 86.5 48.6 85.7 48.8L84.9 46.1C85.7 45.8 86.9 45.3 87.8 44.5C88.7 43.8 89.9 42.6 90.6 40.9C90.8 40.6 90.9 40.3 90.9 40.1C90.9 39.9 90.8 39.7 90.7 39.3L83.9 23.1H87.4Z" fill="#5B92C6"/>
<path d="M103.1 29.1C103.1 26.9 103 25.1 103 23.5H106L106.2 26.5H106.3C107.7 24.4 109.8 23.1 112.8 23.1C117.2 23.1 120.5 26.6 120.5 31.9C120.5 38.1 116.5 41.2 112.2 41.2C109.8 41.2 107.7 40.2 106.6 38.5H106.5V47.9H103.2L103.1 29.1ZM106.4 33.7C106.4 34.2 106.5 34.6 106.6 35C107.2 37.2 109.2 38.7 111.6 38.7C115.1 38.7 117.1 36 117.1 32C117.1 28.5 115.2 25.6 111.7 25.6C109.4 25.6 107.3 27.1 106.7 29.5C106.6 29.9 106.5 30.4 106.5 30.8V33.7H106.4Z" fill="#5B92C6"/>
<path d="M135.9 40.4C135.1 40.8 133.4 41.5 131.2 41.5C126.3 41.5 123.1 37.9 123.1 32.5C123.1 27.1 126.5 23.2 131.8 23.2C133.5 23.2 135.1 23.7 135.9 24.1L135.2 26.6C134.5 26.2 133.4 25.8 131.8 25.8C128.1 25.8 126.1 28.8 126.1 32.4C126.1 36.5 128.5 39 131.7 39C133.4 39 134.5 38.5 135.3 38.1L135.9 40.4Z" fill="#5B92C6"/>
<path d="M153.2 30.2H143.7V38.8H154.3V41.4H140.5V17.6H153.7V20.2H143.7V27.7H153.2V30.2Z" fill="black"/>
<path d="M157.1 22.2H159.7V30.3L169.1 22.2H172.7L162.4 31L173.5 41.4H169.8L160.4 32.5L159.6 33.2V41.4H157L157.1 22.2Z" fill="black"/>
<path d="M189.1 40.4C188.3 40.8 186.4 41.5 184.1 41.5C178.8 41.5 175.4 37.9 175.4 32.5C175.4 27.1 179.1 23.2 184.8 23.2C186.7 23.2 188.3 23.7 189.2 24.1L188.5 26.6C187.7 26.2 186.6 25.8 184.8 25.8C180.8 25.8 178.6 28.8 178.6 32.4C178.6 36.5 181.2 39 184.6 39C186.4 39 187.6 38.5 188.5 38.1L189.1 40.4Z" fill="black"/>
<path d="M206.6 23.1V41.4H203.4V25.7H195.1V41.4H191.9V23.1H206.6Z" fill="black"/>
<path d="M214 32.8C214.1 37.1 216.7 38.9 219.7 38.9C221.9 38.9 223.2 38.5 224.3 38L224.8 40.3C223.7 40.8 221.9 41.4 219.3 41.4C214.2 41.4 211.1 37.8 211.1 32.5C211.1 27.2 214.1 23 218.9 23C224.3 23 225.8 28 225.8 31.3C225.8 32 225.7 32.5 225.7 32.8H214ZM222.9 30.6C222.9 28.6 222.1 25.4 218.7 25.4C215.6 25.4 214.3 28.4 214.1 30.6H222.9Z" fill="black"/>
<path d="M229.6 29.1C229.6 26.9 229.5 25.1 229.5 23.5H232.3L232.4 26.5H232.5C233.8 24.4 235.8 23.1 238.6 23.1C242.8 23.1 245.9 26.6 245.9 31.9C245.9 38.1 242.1 41.2 238 41.2C235.7 41.2 233.7 40.2 232.7 38.5H232.6V47.9H229.5L229.6 29.1ZM232.7 33.7C232.7 34.2 232.8 34.6 232.8 35C233.4 37.2 235.3 38.7 237.5 38.7C240.8 38.7 242.7 36 242.7 32C242.7 28.5 240.9 25.6 237.6 25.6C235.5 25.6 233.5 27.1 232.9 29.5C232.8 29.9 232.7 30.4 232.7 30.8V33.7Z" fill="black"/>
<path d="M261.5 23.1V25.7H256.2V41.4H253.1V25.7H247.8V23.1H261.5Z" fill="black"/>
<path d="M47.3 25.1C46.6 22.2 45.1 19.5 43.4 17.1C43.1 16.7 40.4 14.1 39.2 14.3C37.7 14.6 37.2 14.9 37.3 16.4C42.6 19.1 43.1 22.9 43.4 23.9C40.7 24 37.7 23.8 34.8 24.1C32.8 24.3 31.2 24.7 29.6 25.6C29.5 25.7 29.2 25.9 29.1 25.9C28.9 25.9 28.7 25.7 28.6 25.6C27 24.7 25.5 24.3 23.5 24.1C20.5 23.8 17.5 24 14.9 23.9C15.1 23 15.6 19.2 21 16.4C21.1 15 20.6 14.6 19.1 14.3C17.9 14.1 15.1 16.7 14.9 17.1C13.2 19.6 11.7 22.3 11 25.1C10.4 27.6 10.7 30.9 11 32C11.1 32.7 11.7 34 12.4 34.3C15.7 36 23.7 35.5 25.1 34.8C27.2 33.8 28.1 31.9 28.7 30.3C28.9 29.9 29.1 29.5 29.3 28.9C29.6 29.4 29.8 29.8 29.9 30.3C30.5 31.9 31.3 33.8 33.5 34.8C34.9 35.4 42.9 36 46.2 34.3C46.9 34 47.4 32.6 47.6 32C47.5 30.9 47.9 27.6 47.3 25.1ZM19.8 32.6C14.1 32.6 13.4 32.2 13.3 27.1C17.7 27.2 20.9 27.1 25.3 27.2C24.7 32.4 24.2 32.6 19.8 32.6ZM38.2 32.6C33.9 32.6 33.3 32.3 32.7 27.1C37 27 40.3 27.1 44.7 27C44.6 32.2 43.8 32.7 38.2 32.6Z" fill="black"/>
<path d="M29 56C14.1 56 2 43.9 2 29C2 14.1 14.1 2 29 2C43.9 2 56 14.1 56 29C56 43.9 43.9 56 29 56ZM29 8.4C17.6 8.4 8.4 17.6 8.4 29C8.4 40.4 17.6 49.6 29 49.6C40.4 49.6 49.6 40.4 49.6 29C49.6 17.6 40.4 8.4 29 8.4Z" fill="black"/>
</g>
</g>
<defs>
<clipPath id="clip0_3_18">
<rect width="264" height="58" fill="white"/>
</clipPath>
</defs>
</svg>
