<svg width="324" height="112" viewBox="0 0 324 112" fill="none" xmlns="http://www.w3.org/2000/svg">
<g clip-path="url(#clip0_1_3)">
<path d="M96.3 44.8H98.9V54.4L109.2 44.8H112.7L100.3 56.3L113.7 70.5H110.3L99 58.5V70.5H96.4L96.3 44.8Z" fill="#5B92C6"/>
<path d="M117.4 52.1L121.5 62.5C121.9 63.7 122.4 65 122.7 66.1H122.8C123.1 65 123.5 63.7 124 62.4L127.7 52.1H131.3L126.2 64.7C123.8 70.7 122.1 73.8 119.8 75.7C118.2 77.1 116.5 77.6 115.7 77.8L114.9 75.1C115.7 74.8 116.9 74.3 117.8 73.5C118.7 72.8 119.9 71.6 120.6 69.9C120.8 69.6 120.9 69.3 120.9 69.1C120.9 68.9 120.8 68.7 120.7 68.3L113.9 52.1H117.4Z" fill="#5B92C6"/>
<path d="M133.1 58.1C133.1 55.9 133 54.1 133 52.5H136L136.2 55.5H136.3C137.7 53.4 139.8 52.1 142.8 52.1C147.2 52.1 150.5 55.6 150.5 60.9C150.5 67.1 146.5 70.2 142.2 70.2C139.8 70.2 137.7 69.2 136.6 67.5H136.5V76.9H133.2L133.1 58.1ZM136.4 62.7C136.4 63.2 136.5 63.6 136.6 64C137.2 66.2 139.2 67.7 141.6 67.7C145.1 67.7 147.1 65 147.1 61C147.1 57.5 145.2 54.6 141.7 54.6C139.4 54.6 137.3 56.1 136.7 58.5C136.6 58.9 136.5 59.4 136.5 59.8V62.7H136.4Z" fill="#5B92C6"/>
<path d="M165.9 69.4C165.1 69.8 163.4 70.5 161.2 70.5C156.3 70.5 153.1 66.9 153.1 61.5C153.1 56.1 156.5 52.2 161.8 52.2C163.5 52.2 165.1 52.7 165.9 53.1L165.2 55.6C164.5 55.2 163.4 54.8 161.8 54.8C158.1 54.8 156.1 57.8 156.1 61.4C156.1 65.5 158.5 68 161.7 68C163.4 68 164.5 67.5 165.3 67.1L165.9 69.4Z" fill="#5B92C6"/>
<path d="M183.2 59.2H173.7V67.8H184.3V70.4H170.5V46.6H183.7V49.2H173.7V56.7H183.2V59.2Z" fill="black"/>
<path d="M187.1 51.2H189.7V59.3L199.1 51.2H202.7L192.4 60L203.5 70.4H199.8L190.4 61.5L189.6 62.2V70.4H187L187.1 51.2Z" fill="black"/>
<path d="M219.1 69.4C218.3 69.8 216.4 70.5 214.1 70.5C208.8 70.5 205.4 66.9 205.4 61.5C205.4 56.1 209.1 52.2 214.8 52.2C216.7 52.2 218.3 52.7 219.2 53.1L218.5 55.6C217.7 55.2 216.6 54.8 214.8 54.8C210.8 54.8 208.6 57.8 208.6 61.4C208.6 65.5 211.2 68 214.6 68C216.4 68 217.6 67.5 218.5 67.1L219.1 69.4Z" fill="black"/>
<path d="M236.6 52.1V70.4H233.4V54.7H225.1V70.4H221.9V52.1H236.6Z" fill="black"/>
<path d="M244 61.8C244.1 66.1 246.7 67.9 249.7 67.9C251.9 67.9 253.2 67.5 254.3 67L254.8 69.3C253.7 69.8 251.9 70.4 249.3 70.4C244.2 70.4 241.1 66.8 241.1 61.5C241.1 56.2 244.1 52 248.9 52C254.3 52 255.8 57 255.8 60.3C255.8 61 255.7 61.5 255.7 61.8H244ZM252.9 59.6C252.9 57.6 252.1 54.4 248.7 54.4C245.6 54.4 244.3 57.4 244.1 59.6H252.9Z" fill="black"/>
<path d="M259.6 58.1C259.6 55.9 259.5 54.1 259.5 52.5H262.3L262.4 55.5H262.5C263.8 53.4 265.8 52.1 268.6 52.1C272.8 52.1 275.9 55.6 275.9 60.9C275.9 67.1 272.1 70.2 268 70.2C265.7 70.2 263.7 69.2 262.7 67.5H262.6V76.9H259.5L259.6 58.1ZM262.7 62.7C262.7 63.2 262.8 63.6 262.8 64C263.4 66.2 265.3 67.7 267.5 67.7C270.8 67.7 272.7 65 272.7 61C272.7 57.5 270.9 54.6 267.6 54.6C265.5 54.6 263.5 56.1 262.9 58.5C262.8 58.9 262.7 59.4 262.7 59.8V62.7Z" fill="black"/>
<path d="M291.5 52.1V54.7H286.2V70.4H283.1V54.7H277.8V52.1H291.5Z" fill="black"/>
<path d="M77.3 54.1C76.6 51.2 75.1 48.5 73.4 46.1C73.1 45.7 70.4 43.1 69.2 43.3C67.7 43.6 67.2 43.9 67.3 45.4C72.6 48.1 73.1 51.9 73.4 52.9C70.7 53 67.7 52.8 64.8 53.1C62.8 53.3 61.2 53.7 59.6 54.6C59.5 54.7 59.2 54.9 59.1 54.9C58.9 54.9 58.7 54.7 58.6 54.6C57 53.7 55.5 53.3 53.5 53.1C50.5 52.8 47.5 53 44.9 52.9C45.1 52 45.6 48.2 51 45.4C51.1 44 50.6 43.6 49.1 43.3C47.9 43.1 45.1 45.7 44.9 46.1C43.2 48.6 41.7 51.3 41 54.1C40.4 56.6 40.7 59.9 41 61C41.1 61.7 41.7 63 42.4 63.3C45.7 65 53.7 64.5 55.1 63.8C57.2 62.8 58.1 60.9 58.7 59.3C58.9 58.9 59.1 58.5 59.3 57.9C59.6 58.4 59.8 58.8 59.9 59.3C60.5 60.9 61.3 62.8 63.5 63.8C64.9 64.4 72.9 65 76.2 63.3C76.9 63 77.4 61.6 77.6 61C77.5 59.9 77.9 56.6 77.3 54.1ZM49.8 61.6C44.1 61.6 43.4 61.2 43.3 56.1C47.7 56.2 50.9 56.1 55.3 56.2C54.7 61.4 54.2 61.6 49.8 61.6ZM68.2 61.6C63.9 61.6 63.3 61.3 62.7 56.1C67 56 70.3 56.1 74.7 56C74.6 61.2 73.8 61.7 68.2 61.6Z" fill="black"/>
<path d="M59 85C44.1 85 32 72.9 32 58C32 43.1 44.1 31 59 31C73.9 31 86 43.1 86 58C86 72.9 73.9 85 59 85ZM59 37.4C47.6 37.4 38.4 46.6 38.4 58C38.4 69.4 47.6 78.6 59 78.6C70.4 78.6 79.6 69.4 79.6 58C79.6 46.6 70.4 37.4 59 37.4Z" fill="black"/>
</g>
<defs>
<clipPath id="clip0_1_3">
<rect width="324" height="112" rx="20" fill="white"/>
</clipPath>
</defs>
</svg>
