<svg width="203" height="61" viewBox="0 0 203 61" fill="none" xmlns="http://www.w3.org/2000/svg">
<path d="M82.9004 30.1H92.1004V42.2C90.9004 42.6 89.6004 42.9 88.3004 43.2C87.0004 43.4 85.5004 43.5 83.8004 43.5C81.5004 43.5 79.5004 43 77.9004 42.1C76.3004 41.2 75.1004 39.8 74.2004 38.1C73.4004 36.3 72.9004 34.1 72.9004 31.5C72.9004 29.1 73.4004 26.9 74.3004 25.2C75.2004 23.4 76.6004 22 78.4004 21.1C80.2004 20.1 82.4004 19.6 85.0004 19.6C86.2004 19.6 87.4004 19.7 88.7004 20C89.9004 20.3 91.0004 20.6 92.0004 21L90.4004 25C89.7004 24.6 88.9004 24.3 88.0004 24.1C87.1004 23.9 86.1004 23.7 85.1004 23.7C83.7004 23.7 82.4004 24 81.4004 24.7C80.3004 25.4 79.5004 26.3 78.9004 27.5C78.3004 28.7 78.0004 30.1 78.0004 31.7C78.0004 33.2 78.2004 34.6 78.6004 35.7C79.0004 36.9 79.7004 37.8 80.6004 38.5C81.5004 39.2 82.7004 39.5 84.1004 39.5C84.8004 39.5 85.4004 39.5 85.9004 39.4C86.4004 39.3 86.8004 39.3 87.3004 39.2V34.3H82.9004V30.1Z" fill="black"/>
<path d="M97.6992 43.2V19.9H102.599V39.1H112.099V43.2H97.6992Z" fill="black"/>
<path d="M130.399 43.2L128.699 37.7H120.199L118.499 43.2H113.199L121.399 19.8H127.399L135.699 43.2H130.399ZM127.499 33.5L125.799 28.1C125.699 27.7 125.599 27.3 125.399 26.7C125.199 26.1 124.999 25.6 124.899 25C124.699 24.4 124.599 23.9 124.499 23.5C124.399 23.9 124.199 24.5 124.099 25.1C123.899 25.7 123.699 26.4 123.599 26.9C123.399 27.5 123.299 27.9 123.199 28.1L121.499 33.5H127.499Z" fill="black"/>
<path d="M153.9 43.2H136.6V40L147.8 24H136.9V19.9H153.6V23.1L142.4 39.1H153.9V43.2Z" fill="black"/>
<path d="M178.7 31.5C178.7 33.3 178.5 34.9 178 36.4C177.6 37.9 176.9 39.1 176 40.2C175.1 41.3 173.9 42.1 172.5 42.6C171.1 43.2 169.5 43.5 167.6 43.5C165.7 43.5 164 43.2 162.7 42.6C161.3 42 160.2 41.2 159.2 40.2C158.3 39.1 157.6 37.9 157.2 36.4C156.8 34.9 156.5 33.3 156.5 31.5C156.5 29.1 156.9 27 157.7 25.2C158.5 23.4 159.7 22 161.4 21C163 20 165.1 19.5 167.7 19.5C170.2 19.5 172.3 20 173.9 21C175.5 22 176.7 23.4 177.5 25.2C178.3 27 178.7 29.1 178.7 31.5ZM161.7 31.5C161.7 33.1 161.9 34.5 162.3 35.7C162.7 36.9 163.4 37.8 164.2 38.4C165.1 39 166.2 39.3 167.6 39.3C169 39.3 170.1 39 171 38.4C171.9 37.8 172.5 36.9 172.9 35.7C173.3 34.5 173.5 33.1 173.5 31.5C173.5 29.1 173 27.1 172.1 25.7C171.2 24.3 169.7 23.6 167.6 23.6C166.2 23.6 165.1 23.9 164.2 24.5C163.3 25.1 162.7 26 162.3 27.2C161.9 28.4 161.7 29.9 161.7 31.5Z" fill="black"/>
<path d="M202.3 43.2H196.7L190.6 33.4L188.5 34.9V43.2H183.6V19.9H188.5V30.5C188.8 30 189.2 29.6 189.5 29.1C189.8 28.6 190.1 28.2 190.5 27.7L196.8 19.8H202.3L194.2 30.1L202.3 43.2Z" fill="black"/>
<path d="M39.7992 26.9L42.8992 23.8L42.0992 22.5L38.6992 26.6C39.0992 26.7 39.4992 26.8 39.7992 26.9Z" fill="black"/>
<path d="M35.5996 25.9L39.4996 18.1L38.4996 16.3L34.5996 25.8C34.9996 25.8 35.2996 25.9 35.5996 25.9Z" fill="black"/>
<path d="M37.5996 26.3L41.2996 21.1L40.4996 19.6L36.5996 26C36.9996 26.1 37.2996 26.2 37.5996 26.3Z" fill="black"/>
<path d="M44.8 29L45.7 28.5L45 27.4L43.5 28.3C43.9 28.6 44.3 28.8 44.8 29Z" fill="black"/>
<path d="M42.2 27.8L44.3 26.3L43.6 25.1L41 27.3C41.4 27.4 41.8 27.6 42.2 27.8Z" fill="black"/>
<path d="M28.4008 25.7L26.3008 12L24.8008 14.5L27.4008 25.8C27.7008 25.8 28.1008 25.7 28.4008 25.7Z" fill="black"/>
<path d="M26.4996 26L23.5996 16.7L22.5996 18.5L25.5996 26.2C25.8996 26.1 26.1996 26 26.4996 26Z" fill="black"/>
<path d="M30.6 25.6L30.1 5.40002L28 9.00002L29.5 25.6C29.8 25.6 30.2 25.6 30.6 25.6Z" fill="black"/>
<path d="M31.1992 25.6C31.3992 25.6 31.5992 25.6 31.7992 25.6C31.8992 25.6 31.8992 25.6 31.9992 25.6L34.4992 9.29999L32.4992 5.79999L32.3992 9.39999L31.1992 25.6Z" fill="black"/>
<path d="M33.8004 25.7L37.4004 14.3L36.1004 12L32.9004 25.6C33.2004 25.6 33.5004 25.7 33.8004 25.7Z" fill="black"/>
<path d="M52.1992 39.9L51.6992 39.1C51.4992 39.3 51.2992 39.5 51.1992 39.8L52.1992 39.9Z" fill="black"/>
<path d="M21.5004 39C21.4004 38.8 21.3004 38.5 21.2004 38.3L18.9004 38.6C19.3004 38.9 19.6004 39.1 20.0004 39.3L21.5004 39Z" fill="black"/>
<path d="M47.3 43.4C46.9 43.7 46.4 44 46 44.3L58.5 50.6L56.5 47.1L47.3 43.4Z" fill="black"/>
<path d="M22.3 40.3C22.2 40.1 22 39.9 21.9 39.7L21 40C21.3 40.2 21.6 40.3 21.9 40.5L22.3 40.3Z" fill="black"/>
<path d="M20.4 34.9C19.9 35.2 19.4 35.4 19 35.7L20.5 35.8C20.4 35.5 20.4 35.2 20.4 34.9Z" fill="black"/>
<path d="M20.5996 36.7H17.5996C17.4996 36.8 17.3996 36.8 17.3996 36.9C17.2996 37 17.1996 37.1 17.0996 37.2C17.1996 37.3 17.2996 37.4 17.3996 37.5C17.4996 37.6 17.5996 37.7 17.7996 37.8L20.9996 37.6C20.7996 37.2 20.6996 37 20.5996 36.7Z" fill="black"/>
<path d="M44.8992 37.6L41.4992 37.4C41.3992 37.7 41.2992 38 41.1992 38.3L43.6992 38.7C43.8992 38.5 44.0992 38.4 44.2992 38.2C44.3992 37.9 44.5992 37.7 44.8992 37.6Z" fill="black"/>
<path d="M41.6992 36.4H44.4992L44.3992 36.3C44.0992 36 43.6992 35.7 43.1992 35.4L41.7992 35.5C41.7992 35.8 41.6992 36.1 41.6992 36.4Z" fill="black"/>
<path d="M49.8996 41.1C49.4996 41.5 48.9996 41.9 48.5996 42.3L54.7996 44.3L53.3996 41.9L49.8996 41.1Z" fill="black"/>
<path d="M40.7008 39C40.6008 39.3 40.4008 39.5 40.3008 39.7L41.3008 40C41.7008 39.8 42.1008 39.6 42.4008 39.3L40.7008 39Z" fill="black"/>
<path d="M39.9 40.4C39.8 40.6 39.7 40.7 39.5 40.9C39.7 40.8 40 40.7 40.2 40.6L39.9 40.4Z" fill="black"/>
<path d="M46.5992 30.2L46.3992 29.8L46.1992 29.9C46.2992 30 46.3992 30.1 46.5992 30.2Z" fill="black"/>
<path d="M32.3008 48.7L33.7008 57.5H35.4008L33.2008 48.6C33.0008 48.6 32.7008 48.7 32.3008 48.7Z" fill="black"/>
<path d="M24.1996 47.8L19.5996 57.5H21.5996L25.2996 48.1C24.8996 48 24.5996 47.9 24.1996 47.8Z" fill="black"/>
<path d="M28.7992 48.6L27.1992 57.5H28.8992L29.7992 48.7C29.4992 48.7 29.0992 48.6 28.7992 48.6Z" fill="black"/>
<path d="M26.4 48.3L23.5 57.5H25.4L27.6 48.5C27.2 48.4 26.8 48.4 26.4 48.3Z" fill="black"/>
<path d="M34.3008 48.5L37.3008 57.5H39.2008L35.4008 48.4C35.0008 48.4 34.7008 48.5 34.3008 48.5Z" fill="black"/>
<path d="M31.2 48.7C31 48.7 30.7 48.7 30.5 48.7V57.5H32.2L31.5 48.7C31.3 48.7 31.2 48.7 31.2 48.7Z" fill="black"/>
<path d="M61.0004 55.1L44.7004 45.2C44.3004 45.4 43.9004 45.7 43.4004 45.9L59.5004 57.5H62.4004L61.0004 55.1Z" fill="black"/>
<path d="M40.9004 46.9L51.5004 57.5H55.1004L42.1004 46.5C41.7004 46.6 41.3004 46.8 40.9004 46.9Z" fill="black"/>
<path d="M38.5996 47.7L45.7996 57.5H48.4996L39.7996 47.3C39.3996 47.5 38.9996 47.6 38.5996 47.7Z" fill="black"/>
<path d="M36.4004 48.2L41.2004 57.5H43.4004L37.5004 48C37.1004 48.1 36.8004 48.1 36.4004 48.2Z" fill="black"/>
<path d="M23.0008 26.8L20.0008 22.7L19.3008 23.9L22.0008 27.1C22.5008 26.9 22.7008 26.8 23.0008 26.8Z" fill="black"/>
<path d="M16.1992 29.9C16.3992 29.8 16.6992 29.6 16.8992 29.5L16.2992 29.2L15.6992 30.3C15.8992 30.1 16.0992 30 16.1992 29.9Z" fill="black"/>
<path d="M19.2 28.2L17.5 27L17 28.1L18.2 28.8C18.5 28.6 18.9 28.4 19.2 28.2Z" fill="black"/>
<path d="M21.2992 27.4L18.7992 25L18.1992 26.1L20.2992 27.8C20.5992 27.6 20.8992 27.5 21.2992 27.4Z" fill="black"/>
<path d="M23.9008 26.5C24.2008 26.4 24.4008 26.4 24.7008 26.3L21.6008 20L20.8008 21.4L23.9008 26.5Z" fill="black"/>
<path d="M11.2 39.8L10.2 40L9 41.9L12.4 41.1C12 40.7 11.6 40.3 11.2 39.8Z" fill="black"/>
<path d="M20.3 46.5L9.5 57.5H12.5L21.3 46.9C20.9 46.7 20.6 46.6 20.3 46.5Z" fill="black"/>
<path d="M22.1996 47.2L15.0996 57.5H17.3996L23.1996 47.5C22.8996 47.4 22.5996 47.3 22.1996 47.2Z" fill="black"/>
<path d="M13.5992 42.3L7.69922 44.1L6.19922 46.7L14.8992 43.2C14.4992 43 13.9992 42.6 13.5992 42.3Z" fill="black"/>
<path d="M18.1996 45.5L1.59961 57.5H5.89961L19.1996 46C18.8996 45.8 18.5996 45.6 18.1996 45.5Z" fill="black"/>
<path d="M16.1 44.1L4.4 49.9L2 54.1L17.2 44.9C16.8 44.6 16.4 44.4 16.1 44.1Z" fill="black"/>
<path d="M50.3004 37.1C41.8004 48.9 22.0004 50.1 11.9004 37.1C15.0004 32.8 19.5004 30 24.5004 28.6C28.8004 27.5 33.4004 27.5 37.7004 28.5C42.7004 29.9 47.3004 32.7 50.3004 37.1Z" fill="#AACFA9"/>
<path d="M37.7004 28.6C33.4004 27.5 28.8004 27.5 24.5004 28.7C19.5004 30 15.0004 32.8 11.9004 37.2C22.0004 50.2 41.8004 49 50.3004 37.1C47.3004 32.7 42.7004 29.9 37.7004 28.6ZM45.7004 39.8C37.4004 46.6 23.7004 46.3 15.8004 39.1C13.7004 37.2 13.7004 37 15.9004 35.2C17.8004 33.5 20.7004 32 23.2004 31.2C22.9004 32.1 22.7004 33.1 22.7004 34.2C22.7004 38.9 26.5004 42.7 31.2004 42.7C35.9004 42.7 39.7004 38.9 39.7004 34.2C39.7004 33.1 39.5004 32 39.1004 31C42.0004 31.8 44.4004 33.5 45.8004 34.6C48.8004 37 48.8004 37.3 45.7004 39.8Z" fill="black"/>
<path d="M35.5992 34.9C35.5992 37.4 33.5992 39.4 31.0992 39.4C28.5992 39.4 26.5992 37.4 26.5992 34.9C26.5992 34.6 26.5992 34.3 26.6992 34.1C25.7992 33.8 25.1992 33 25.1992 32C25.1992 30.8 26.1992 29.8 27.3992 29.8C28.1992 29.8 28.8992 30.2 29.2992 30.9C29.7992 30.7 30.3992 30.5 31.0992 30.5C33.5992 30.4 35.5992 32.4 35.5992 34.9Z" fill="#AACFA9"/>
</svg>
