<svg width="40" height="40" viewBox="0 0 40 40" fill="none" xmlns="http://www.w3.org/2000/svg">
<rect width="40" height="40" rx="20" fill="url(#paint0_linear_1_17)"/>
<path d="M22.13 19.34C22.52 17.7 21.09 16.27 19.45 16.66C18.68 16.85 18.05 17.48 17.86 18.25C17.47 19.89 18.9 21.32 20.54 20.93C21.32 20.74 21.95 20.11 22.13 19.34Z" stroke="#292D32" stroke-width="1.5" stroke-linecap="round" stroke-linejoin="round"/>
<path d="M26.01 25.19C27.72 23.59 28.79 21.32 28.79 18.79C28.79 13.93 24.85 10 20 10C15.15 10 11.21 13.94 11.21 18.79C11.21 21.33 12.29 23.62 14.02 25.22" stroke="#292D32" stroke-width="1.5" stroke-linecap="round" stroke-linejoin="round"/>
<path d="M16 22.55C15.08 21.57 14.51 20.25 14.51 18.79C14.51 15.76 16.97 13.3 20 13.3C23.03 13.3 25.49 15.76 25.49 18.79C25.49 20.25 24.92 21.56 24 22.55" stroke="#292D32" stroke-width="1.5" stroke-linecap="round" stroke-linejoin="round"/>
<path d="M18.3 24.66L16.86 26.45C15.72 27.88 16.73 29.99 18.56 29.99H21.43C23.26 29.99 24.28 27.87 23.13 26.45L21.69 24.66C20.83 23.57 19.17 23.57 18.3 24.66Z" stroke="#292D32" stroke-width="1.5" stroke-linecap="round" stroke-linejoin="round"/>
<defs>
<linearGradient id="paint0_linear_1_17" x1="0" y1="0" x2="40" y2="40" gradientUnits="userSpaceOnUse">
<stop stop-color="#F2F3FF"/>
<stop offset="1" stop-color="#94F1E5"/>
</linearGradient>
</defs>
</svg>
