<svg width="40" height="40" viewBox="0 0 40 40" fill="none" xmlns="http://www.w3.org/2000/svg">
<rect width="40" height="40" rx="20" fill="url(#paint0_linear_133_6937)"/>
<path d="M26.04 21.55C25.62 21.96 25.38 22.55 25.44 23.18C25.53 24.26 26.52 25.05 27.6 25.05H29.5V26.24C29.5 28.31 27.81 30 25.74 30H15.63C15.94 29.74 16.21 29.42 16.42 29.06C16.79 28.46 17 27.75 17 27C17 24.79 15.21 23 13 23C12.06 23 11.19 23.33 10.5 23.88V19.51C10.5 17.44 12.19 15.75 14.26 15.75H25.74C27.81 15.75 29.5 17.44 29.5 19.51V20.95H27.48C26.92 20.95 26.41 21.17 26.04 21.55Z" stroke="#292D32" stroke-width="1.5" stroke-linecap="round" stroke-linejoin="round"/>
<path d="M10.5 20.41V15.84C10.5 14.65 11.23 13.59 12.34 13.17L20.28 10.17C21.52 9.7 22.85 10.62 22.85 11.95V15.75" stroke="#292D32" stroke-width="1.5" stroke-linecap="round" stroke-linejoin="round"/>
<path d="M30.5588 21.9702V24.0302C30.5588 24.5802 30.1188 25.0302 29.5588 25.0502H27.5988C26.5188 25.0502 25.5288 24.2602 25.4388 23.1802C25.3788 22.5502 25.6188 21.9602 26.0388 21.5502C26.4088 21.1702 26.9188 20.9502 27.4788 20.9502H29.5588C30.1188 20.9702 30.5588 21.4202 30.5588 21.9702Z" stroke="#292D32" stroke-width="1.5" stroke-linecap="round" stroke-linejoin="round"/>
<path d="M15 20H22" stroke="#292D32" stroke-width="1.5" stroke-linecap="round" stroke-linejoin="round"/>
<path d="M17 27C17 27.75 16.79 28.46 16.42 29.06C16.21 29.42 15.94 29.74 15.63 30C14.93 30.63 14.01 31 13 31C11.54 31 10.27 30.22 9.58 29.06C9.21 28.46 9 27.75 9 27C9 25.74 9.58 24.61 10.5 23.88C11.19 23.33 12.06 23 13 23C15.21 23 17 24.79 17 27Z" stroke="#292D32" stroke-width="1.5" stroke-miterlimit="10" stroke-linecap="round" stroke-linejoin="round"/>
<path d="M14.4917 26.9795H11.5117" stroke="#292D32" stroke-width="1.5" stroke-miterlimit="10" stroke-linecap="round" stroke-linejoin="round"/>
<path d="M13 25.5195V28.5095" stroke="#292D32" stroke-width="1.5" stroke-miterlimit="10" stroke-linecap="round" stroke-linejoin="round"/>
<defs>
<linearGradient id="paint0_linear_133_6937" x1="0" y1="0" x2="40" y2="40" gradientUnits="userSpaceOnUse">
<stop stop-color="#F2F3FF"/>
<stop offset="1" stop-color="#94F1E5"/>
</linearGradient>
</defs>
</svg>
