<svg width="27" height="24" fill="none" xmlns="http://www.w3.org/2000/svg"><path d="M0 13.516v-3.032a3.818 3.818 0 0 1 3.818-3.817c.756 0 1.495-.225 2.124-.646L14.21.484a2.864 2.864 0 0 1 4.457 2.38v18.273a2.863 2.863 0 0 1-4.457 2.379l-8.268-5.537a3.817 3.817 0 0 0-2.124-.646A3.818 3.818 0 0 1 0 13.516Zm24.12 5.267c1.12-1.43 2.213-3.643 2.213-6.783 0-3.14-1.092-5.353-2.212-6.783a9.437 9.437 0 0 0-1.54-1.562 7.291 7.291 0 0 0-.686-.485 2.93 2.93 0 0 0-.05-.03l-.016-.008-.005-.003-.003-.002-.002-.001a1 1 0 0 0-.976 1.746l.019.01c.018.012.05.031.093.06.087.057.219.149.38.278a7.44 7.44 0 0 1 1.21 1.23c.881 1.124 1.788 2.911 1.788 5.55 0 2.638-.907 4.426-1.787 5.55a7.438 7.438 0 0 1-1.21 1.23 5.267 5.267 0 0 1-.474.337l-.019.011a1 1 0 0 0 .976 1.746l.002-.001.002-.001.006-.004.017-.01.049-.028a7.278 7.278 0 0 0 .686-.485 9.439 9.439 0 0 0 1.54-1.562Z" fill="#FFF384"/><path d="M20.485 8.459a1 1 0 0 0-.985 1.74l.007.005a1.818 1.818 0 0 1 .372.357c.214.272.454.726.454 1.439 0 .712-.24 1.166-.454 1.44a1.818 1.818 0 0 1-.372.356l-.007.005a1 1 0 0 0 .985 1.74l.002-.001.003-.001.004-.003.01-.006.028-.016a3.083 3.083 0 0 0 .3-.21c.175-.14.4-.348.622-.632.453-.58.88-1.458.88-2.672 0-1.214-.427-2.093-.88-2.672a3.812 3.812 0 0 0-.623-.631 3.1 3.1 0 0 0-.3-.211l-.026-.016-.01-.006-.006-.003-.002-.001.018.01-.02-.011Z" fill="#FFF384"/></svg>