<svg width="32" height="32" fill="none" xmlns="http://www.w3.org/2000/svg"><path d="M13.214 24.053C13.154 24.295 11.63 30 3.25 30A1.25 1.25 0 0 1 2 28.75c0-8.38 5.705-9.903 5.947-9.964a1.25 1.25 0 0 1 .606 2.426c-.14.04-3.503 1.022-3.994 6.229 5.207-.491 6.191-3.847 6.232-4.003a1.251 1.251 0 0 1 2.423.625v-.01Zm14.531-10.531-.745.745v9.114a2.484 2.484 0 0 1-.731 1.775l-5.363 5.36a2.487 2.487 0 0 1-2.562.604 2.49 2.49 0 0 1-1.685-2.018l-.839-6.015-6.908-6.907-6.01-.84a2.5 2.5 0 0 1-1.418-4.246l5.36-5.363A2.486 2.486 0 0 1 8.619 5h9.114l.745-.745C22.647.087 27.668-.092 29.636.025a2.5 2.5 0 0 1 2.344 2.344c.114 1.96-.066 6.984-4.233 11.153h-.002ZM15.233 7.5H8.619L3.25 12.866l5.805.809L15.233 7.5Zm9.267 9.267-6.177 6.177.813 5.806 5.364-5.369v-6.614Z" fill="#5B4B23"/></svg>