<svg width="50" height="50" fill="none" xmlns="http://www.w3.org/2000/svg"><rect width="50" height="50" rx="25" fill="url(#a)" fill-opacity=".6"/><rect x=".5" y=".5" width="49" height="49" rx="24.5" stroke="#FBC12D" stroke-opacity=".25"/><path d="M25 25a5.25 5.25 0 1 0 0-10.5A5.25 5.25 0 0 0 25 25Zm0 10.5c4.64 0 8.4-2.115 8.4-4.725 0-2.61-3.76-4.725-8.4-4.725-4.64 0-8.4 2.115-8.4 4.725 0 2.61 3.76 4.725 8.4 4.725Z" fill="#FBC12D"/><path d="M32.583 19.75c0-.514-.166-.989-.447-1.375a2.341 2.341 0 0 0-1.031-.797l-.03-.012a1.727 1.727 0 0 1-.311-.168c-.295-.203-.514-.501-.514-.856 0-.484.396-.885.869-.783a4.08 4.08 0 0 1 3.215 3.99 4.08 4.08 0 0 1-3.215 3.992c-.473.102-.869-.3-.869-.783 0-.355.219-.652.514-.855a1.668 1.668 0 0 1 .311-.17l.03-.011a2.34 2.34 0 0 0 1.478-2.172Zm2.334 10.5c0 .102-.054.332-.322.627a2.74 2.74 0 0 1-.392.35 1.28 1.28 0 0 0-.169.152 1.01 1.01 0 0 0-.284.684c0 .668.685 1.119 1.24.748.09-.06.177-.121.26-.184l.034-.025c.251-.192.473-.396.66-.61.464-.529.723-1.12.723-1.742 0-.623-.26-1.213-.722-1.741a4.526 4.526 0 0 0-.661-.61l-.034-.026a5.862 5.862 0 0 0-.26-.184c-.555-.37-1.24.08-1.24.748 0 .258.11.496.284.684a1.249 1.249 0 0 0 .17.152c.165.124.293.241.391.35.268.296.322.525.322.627Zm-17.5-10.5c0-.514.166-.99.447-1.375a2.34 2.34 0 0 1 1.031-.797l.03-.012a1.756 1.756 0 0 0 .311-.169c.295-.203.514-.5.514-.855 0-.484-.396-.885-.869-.783a4.08 4.08 0 0 0-3.215 3.99 4.08 4.08 0 0 0 3.215 3.992c.473.102.869-.3.869-.783 0-.355-.22-.653-.514-.856a1.668 1.668 0 0 0-.311-.168l-.03-.012a2.341 2.341 0 0 1-1.478-2.172Zm-2.334 10.5c0 .102.054.331.322.627.098.108.226.226.391.35a1.286 1.286 0 0 1 .17.152c.174.187.284.426.284.684 0 .667-.685 1.118-1.24.748a5.78 5.78 0 0 1-.26-.184l-.034-.026a4.526 4.526 0 0 1-.66-.61c-.464-.528-.723-1.118-.723-1.741s.26-1.213.722-1.741c.188-.215.41-.419.661-.61l.034-.026a5.7 5.7 0 0 1 .26-.184c.555-.37 1.24.08 1.24.748 0 .258-.11.496-.284.684a1.273 1.273 0 0 1-.17.152 2.752 2.752 0 0 0-.391.35c-.268.295-.322.525-.322.627Z" fill="#FBC12D"/><defs><linearGradient id="a" x1="0" y1="25" x2="50" y2="25" gradientUnits="userSpaceOnUse"><stop stop-color="#584C2B"/><stop offset="1" stop-color="#96792F"/></linearGradient></defs></svg>