<svg width="27" height="36" fill="none" xmlns="http://www.w3.org/2000/svg"><path d="M12.738.813c-.827.287-1.558.923-1.907 1.668l-.184.376H9.3c-1.51 0-1.654.04-1.934.492-.13.212-.137.348-.137 2.789 0 2.44.007 2.577.137 2.788.075.124.232.28.355.356.219.13.356.137 6.07.137s5.851-.007 6.07-.137c.123-.075.28-.232.355-.356.13-.211.137-.348.137-2.788s-.007-2.577-.137-2.79c-.28-.45-.424-.491-1.934-.491h-1.347l-.184-.376c-.356-.752-1.087-1.388-1.921-1.668-.574-.198-1.531-.192-2.092 0Z" fill="#5B4B23"/><path d="M2.082 5.146a2.481 2.481 0 0 0-1.012.773c-.43.588-.403-.465-.403 14.443v13.589l.144.383c.19.506.683.998 1.189 1.19.383.143.39.143 11.791.143s11.408 0 11.791-.144c.506-.191.998-.683 1.19-1.19l.143-.382V6.76l-.143-.383c-.192-.506-.684-.998-1.19-1.19-.335-.13-.533-.143-1.702-.143h-1.326l-.034 1.893c-.02 1.545-.055 1.969-.15 2.277a3.444 3.444 0 0 1-2.256 2.235c-.383.116-.773.123-6.323.123-5.544 0-5.94-.007-6.323-.123a3.463 3.463 0 0 1-1.914-1.484c-.423-.697-.458-.922-.492-3.028l-.034-1.893-1.347.007c-.97 0-1.415.027-1.6.095Zm11.148 8.852c.424.26.63.903.418 1.32-.11.212-4.635 4.75-4.86 4.873-.22.117-.69.123-.896.02-.212-.109-2.57-2.453-2.686-2.672-.233-.444-.048-1.08.396-1.353.253-.15.725-.185.964-.062.082.041.513.438.957.868l.8.8 1.9-1.887c1.039-1.038 1.955-1.927 2.03-1.968.226-.116.731-.089.977.061Zm8.695 2.16c.732.431.732 1.402 0 1.832-.232.137-.342.144-2.666.144s-2.433-.007-2.666-.144c-.86-.499-.676-1.709.294-1.948.117-.027 1.251-.048 2.51-.04 2.173.013 2.303.02 2.528.156Zm-8.695 6.59c.424.26.63.902.418 1.319-.11.212-4.635 4.75-4.86 4.874-.22.116-.69.123-.896.02-.212-.11-2.57-2.454-2.686-2.672-.233-.445-.048-1.08.396-1.354.253-.15.725-.184.964-.061.082.04.513.437.957.868l.8.8 1.9-1.887c1.039-1.04 1.955-1.928 2.03-1.969.226-.116.731-.089.977.062Zm8.695 2.16c.732.43.732 1.401 0 1.832-.232.136-.342.143-2.666.143s-2.433-.007-2.666-.143c-.86-.5-.676-1.71.294-1.948.117-.028 1.251-.048 2.51-.042 2.173.014 2.303.021 2.528.158Z" fill="#5B4B23"/></svg>