<svg width="32" height="25" fill="none" xmlns="http://www.w3.org/2000/svg"><path d="M16.726 14.666a3.801 3.801 0 0 0-.726.726 3.804 3.804 0 0 0-.726-.726c.274-.208.518-.452.726-.726.208.274.452.518.726.726Z" fill="#5B4B23"/><path fill-rule="evenodd" clip-rule="evenodd" d="m.731 11.837 3.726 11.497a1.69 1.69 0 0 0 1.82 1.15c2.207-.276 6.588-.77 9.723-.77 3.135 0 7.516.494 9.723.77.804.1 1.57-.38 1.82-1.15l3.726-11.497c.478-1.475-1.141-2.747-2.461-1.932l-3.832 2.365a1.667 1.667 0 0 1-2.374-.69L17.499 1.083c-.608-1.25-2.39-1.25-2.998 0L9.398 11.58a1.667 1.667 0 0 1-2.374.69L3.192 9.905c-1.32-.815-2.939.457-2.46 1.932Zm14.046-1.319c.42-1.136 2.026-1.136 2.447 0l.581 1.572c.132.357.414.639.771.771l1.572.582c1.136.42 1.136 2.027 0 2.447l-1.572.581a1.304 1.304 0 0 0-.77.771l-.582 1.572c-.42 1.136-2.027 1.136-2.447 0l-.582-1.572a1.304 1.304 0 0 0-.771-.77l-1.572-.582c-1.136-.42-1.136-2.027 0-2.447l1.572-.582c.357-.132.639-.414.77-.77l.582-1.573Z" fill="#5B4B23"/></svg>